<svg id="Layer_1" data-name="Layer 1" xmlns="http://www.w3.org/2000/svg" viewBox="0 0 118.79 122.88"><title>business-model</title><path d="M92.42,0a15.48,15.48,0,0,1,11,26.42h0a15.53,15.53,0,0,1-15.13,4l-.9,1.7a34.93,34.93,0,0,1,4.82,4,34.2,34.2,0,0,1,0,48.35l-.74.71,6,7.92a15.18,15.18,0,0,1,5.85-1.15,15.44,15.44,0,0,1,10.94,4.53h0a15.48,15.48,0,1,1-21.88,21.9h0a15.5,15.5,0,0,1-.16-21.74l-5.76-7.56A34.17,34.17,0,0,1,39.21,78.72L29,84a15.47,15.47,0,0,1-2.59,18.44h0a15.48,15.48,0,0,1-21.88,0h0a15.5,15.5,0,0,1,0-21.9l.18-.16a15.46,15.46,0,0,1,20-1.3A1.75,1.75,0,0,1,25,79l11.29-5.87A34.24,34.24,0,0,1,39,42.1L26.9,32.78l-.06,0a15.45,15.45,0,0,1-21.7-.16h0A15.48,15.48,0,1,1,27,10.78h0a15.5,15.5,0,0,1,3.41,16.77,2.82,2.82,0,0,1,.31.21l12.12,9.33,1-1a34.23,34.23,0,0,1,38-7.1l.81-1.53c-.4-.32-.78-.67-1.15-1l-.16-.18a15.45,15.45,0,0,1,.16-21.7h0A15.45,15.45,0,0,1,92.42,0ZM69.24,61.46H66.73a.18.18,0,0,0-.1,0,.13.13,0,0,0,0,.1v5.28a.18.18,0,0,0,0,.1.13.13,0,0,0,.1,0h2.5a.15.15,0,0,0,.1,0,.16.16,0,0,0,0-.1V61.6a.14.14,0,0,0,0-.1.11.11,0,0,0-.09,0ZM53,50.26h8.67V47.77A1.37,1.37,0,0,1,63,46.41H73a1.37,1.37,0,0,1,1.36,1.36v2.49H83a1.93,1.93,0,0,1,1.92,1.93v4.64a42.85,42.85,0,0,1-6.73,3.8A37.35,37.35,0,0,1,71,63V61.18a1.54,1.54,0,0,0-1.55-1.55h-2.9A1.54,1.54,0,0,0,65,61.18V63a37.4,37.4,0,0,1-7-2.36,43.76,43.76,0,0,1-6.91-3.92V52.19A1.95,1.95,0,0,1,53,50.26Zm31.93,9.33V72.2a1.87,1.87,0,0,1-.56,1.35,1.92,1.92,0,0,1-1.36.57H53a1.95,1.95,0,0,1-1.93-1.92V59.47a44.57,44.57,0,0,0,5.87,3.18A39.32,39.32,0,0,0,65,65.3v2a1.57,1.57,0,0,0,.45,1.1,1.54,1.54,0,0,0,1.09.45h2.91A1.54,1.54,0,0,0,71,67.3V65.21l0,.12a39.92,39.92,0,0,0,8.22-2.68,43.93,43.93,0,0,0,5.68-3.06Zm-13-11.32H64.06a.13.13,0,0,0-.12,0,.17.17,0,0,0-.06.12v1.77h8.2V48.44a.17.17,0,0,0-.17-.17ZM82.77,35.61a3,3,0,0,1-.74-.28,3.45,3.45,0,0,1-.75-.55,28.21,28.21,0,1,0,1.49.83Zm27.33,65a9.62,9.62,0,0,0-13.44-.13l-.13.14a9.58,9.58,0,0,0,0,13.56h0a9.59,9.59,0,1,0,13.56-13.56ZM22.27,84.74a9.62,9.62,0,0,0-13.44-.13l-.13.14a9.58,9.58,0,0,0,0,13.56h0a9.58,9.58,0,0,0,13.56,0h0a9.62,9.62,0,0,0,0-13.57Zm.59-69.81A9.59,9.59,0,0,0,9.3,28.5h0a9.62,9.62,0,0,0,13.44.13l.13-.14a9.61,9.61,0,0,0,0-13.56ZM99.2,8.7a9.58,9.58,0,0,0-13.56,0h0a9.61,9.61,0,0,0-.12,13.44l.13.12a9.58,9.58,0,0,0,13.56,0h0a9.61,9.61,0,0,0,0-13.57Z"/></svg>