<!DOCTYPE svg PUBLIC "-//W3C//DTD SVG 1.1//EN" "http://www.w3.org/Graphics/SVG/1.1/DTD/svg11.dtd">
<!-- Uploaded to: SVG Repo, www.svgrepo.com, Transformed by: SVG Repo Mixer Tools -->
<svg fill="#000000" version="1.1" id="Layer_1" xmlns="http://www.w3.org/2000/svg" xmlns:xlink="http://www.w3.org/1999/xlink" width="64px" height="64px" viewBox="0 0 100 100" enable-background="new 0 0 100 100" xml:space="preserve">
<g id="SVGRepo_bgCarrier" stroke-width="0"/>
<g id="SVGRepo_tracerCarrier" stroke-linecap="round" stroke-linejoin="round"/>
<g id="SVGRepo_iconCarrier"> <g> <path d="M60.5,19.5c0-3.313-2.687-6-6-6h-10c-3.313,0-6,2.687-6,6v35c0,3.313,2.687,6,6,6h10c3.313,0,6-2.687,6-6V19.5z M56.5,54.5 c0,1.104-0.896,2-2,2h-10c-1.104,0-2-0.896-2-2v-35c0-1.104,0.896-2,2-2h10c1.104,0,2,0.896,2,2V54.5z"/> <path d="M65.5,34.881c-1.104,0-2,0.896-2,2v21.894c0,2.768-1.946,4.726-4.842,4.726H40.887c-2.74,0-5.387-1.862-5.387-4.726V36.881 c0-1.104-0.896-2-2-2s-2,0.896-2,2v21.894c0,5.106,4.403,8.726,9.387,8.726H47.5v15H38c-1.104,0-2,0.896-2,2s0.896,2,2,2h24 c1.104,0,2-0.896,2-2s-0.896-2-2-2H51.5v-15h7.158c5.063,0,8.842-3.789,8.842-8.726V36.881C67.5,35.776,66.604,34.881,65.5,34.881z "/> </g> </g>
</svg>