<?xml version="1.0" encoding="utf-8"?><!-- Uploaded to: SVG Repo, www.svgrepo.com, Generator: SVG Repo Mixer Tools -->
<svg width="800px" height="800px" viewBox="0 0 24 24" fill="none" xmlns="http://www.w3.org/2000/svg">
<path d="M8.88875 14.5414C8.63822 14.0559 8.0431 13.8607 7.55301 14.1058C7.05903 14.3528 6.8588 14.9535 7.10579 15.4474C7.18825 15.6118 7.29326 15.7659 7.40334 15.9127C7.58615 16.1565 7.8621 16.4704 8.25052 16.7811C9.04005 17.4127 10.2573 18.0002 12.0002 18.0002C13.7431 18.0002 14.9604 17.4127 15.7499 16.7811C16.1383 16.4704 16.4143 16.1565 16.5971 15.9127C16.7076 15.7654 16.8081 15.6113 16.8941 15.4485C17.1387 14.961 16.9352 14.3497 16.4474 14.1058C15.9573 13.8607 15.3622 14.0559 15.1117 14.5414C15.0979 14.5663 14.9097 14.892 14.5005 15.2194C14.0401 15.5877 13.2573 16.0002 12.0002 16.0002C10.7431 16.0002 9.96038 15.5877 9.49991 15.2194C9.09071 14.892 8.90255 14.5663 8.88875 14.5414Z" fill="#0F0F0F"/>
<path d="M6.5 7C5 7 5 8.66667 5 8.66667C5 10 7.5 12 8 12C8.5 12 11 10 11 8.66667C11 8.66667 11 7 9.5 7C8 7 8 9 8 9C8 9 8 7 6.5 7Z" fill="#0F0F0F"/>
<path d="M13 8.66667C13 8.66667 13 7 14.5 7C16 7 16 9 16 9C16 9 16 7 17.5 7C19 7 19 8.66667 19 8.66667C19 10 16.5 12 16 12C15.5 12 13 10 13 8.66667Z" fill="#0F0F0F"/>
<path fill-rule="evenodd" clip-rule="evenodd" d="M12 23C18.0751 23 23 18.0751 23 12C23 5.92487 18.0751 1 12 1C5.92487 1 1 5.92487 1 12C1 18.0751 5.92487 23 12 23ZM12 20.9932C7.03321 20.9932 3.00683 16.9668 3.00683 12C3.00683 7.03321 7.03321 3.00683 12 3.00683C16.9668 3.00683 20.9932 7.03321 20.9932 12C20.9932 16.9668 16.9668 20.9932 12 20.9932Z" fill="#0F0F0F"/>
</svg>