<?xml version="1.0" encoding="utf-8"?><!-- Uploaded to: SVG Repo, www.svgrepo.com, Generator: SVG Repo Mixer Tools -->
<svg width="800px" height="800px" viewBox="0 0 24 24" fill="none" xmlns="http://www.w3.org/2000/svg">
<path d="M15.1091 16.4588C15.3597 16.9443 15.9548 17.1395 16.4449 16.8944C16.9388 16.6474 17.1391 16.0468 16.8921 15.5528C16.8096 15.3884 16.7046 15.2343 16.5945 15.0875C16.4117 14.8438 16.1358 14.5299 15.7473 14.2191C14.9578 13.5875 13.7406 13 11.9977 13C10.2547 13 9.03749 13.5875 8.24796 14.2191C7.85954 14.5299 7.58359 14.8438 7.40078 15.0875C7.29028 15.2348 7.1898 15.3889 7.10376 15.5517C6.85913 16.0392 7.06265 16.6505 7.55044 16.8944C8.04053 17.1395 8.63565 16.9443 8.88619 16.4588C8.9 16.4339 9.08816 16.1082 9.49735 15.7809C9.95782 15.4125 10.7406 15 11.9977 15C13.2547 15 14.0375 15.4125 14.498 15.7809C14.9072 16.1082 15.0953 16.4339 15.1091 16.4588Z" fill="#0F0F0F"/>
<path d="M6.29289 7.29289C6.68342 6.90237 7.31658 6.90237 7.70711 7.29289L9.70711 9.29289C10.0976 9.68342 10.0976 10.3166 9.70711 10.7071C9.31658 11.0976 8.68342 11.0976 8.29289 10.7071L6.29289 8.70711C5.90237 8.31658 5.90237 7.68342 6.29289 7.29289Z" fill="#0F0F0F"/>
<path d="M17.7071 8.70711C18.0976 8.31658 18.0976 7.68342 17.7071 7.29289C17.3166 6.90237 16.6834 6.90237 16.2929 7.29289L14.2929 9.29289C13.9024 9.68342 13.9024 10.3166 14.2929 10.7071C14.6834 11.0976 15.3166 11.0976 15.7071 10.7071L17.7071 8.70711Z" fill="#0F0F0F"/>
<path fill-rule="evenodd" clip-rule="evenodd" d="M12 23C18.0751 23 23 18.0751 23 12C23 5.92487 18.0751 1 12 1C5.92487 1 1 5.92487 1 12C1 18.0751 5.92487 23 12 23ZM12 20.9932C7.03321 20.9932 3.00683 16.9668 3.00683 12C3.00683 7.03321 7.03321 3.00683 12 3.00683C16.9668 3.00683 20.9932 7.03321 20.9932 12C20.9932 16.9668 16.9668 20.9932 12 20.9932Z" fill="#0F0F0F"/>
</svg>